<?xml version="1.0" encoding="UTF-8"?>
<svg width="438.53px" height="438.53px" enable-background="new 0 0 438.529 438.528" version="1.1" viewBox="0 0 438.53 438.53" xml:space="preserve" xmlns="http://www.w3.org/2000/svg">
<g fill="#fff">
	<g fill="#fff">
		<path d="m433.11 23.694c-3.614-3.612-7.898-5.424-12.848-5.424-4.948 0-9.226 1.812-12.847 5.424l-37.113 36.835c-20.365-19.226-43.684-34.123-69.948-44.684-26.262-10.562-53.297-15.842-81.087-15.842-52.344 0-98.022 15.843-137.04 47.536-39.021 31.689-64.715 73.035-77.087 124.05v1.997c0 2.474 0.903 4.617 2.712 6.423 1.809 1.809 3.949 2.712 6.423 2.712h56.814c4.189 0 7.042-2.19 8.566-6.565 7.993-19.032 13.035-30.166 15.131-33.403 13.322-21.698 31.023-38.734 53.103-51.106 22.082-12.371 45.873-18.559 71.376-18.559 38.261 0 71.473 13.039 99.645 39.115l-39.406 39.397c-3.607 3.617-5.421 7.902-5.421 12.851 0 4.948 1.813 9.231 5.421 12.847 3.621 3.617 7.905 5.424 12.854 5.424h127.91c4.949 0 9.233-1.807 12.848-5.424 3.613-3.616 5.42-7.898 5.42-12.847v-127.91c0-4.949-1.796-9.23-5.42-12.848z"/>
		<path d="m422.25 255.81h-54.816c-4.188 0-7.043 2.187-8.562 6.566-7.99 19.034-13.038 30.163-15.129 33.4-13.326 21.693-31.028 38.735-53.102 51.106-22.083 12.375-45.874 18.556-71.378 18.556-18.461 0-36.259-3.423-53.387-10.273-17.13-6.858-32.454-16.567-45.966-29.13l39.115-39.112c3.615-3.613 5.424-7.901 5.424-12.847 0-4.948-1.809-9.236-5.424-12.847-3.617-3.62-7.898-5.431-12.847-5.431h-127.91c-4.952 0-9.235 1.811-12.851 5.431-3.616 3.612-5.423 7.9-5.423 12.848v127.91c0 4.945 1.807 9.232 5.424 12.847 3.619 3.61 7.902 5.428 12.851 5.428 4.948 0 9.229-1.817 12.847-5.428l36.829-36.833c20.367 19.41 43.542 34.355 69.523 44.823 25.981 10.472 52.866 15.701 80.653 15.701 52.155 0 97.643-15.845 136.47-47.534 38.828-31.688 64.333-73.042 76.52-124.05 0.191-0.38 0.281-1.047 0.281-1.995 0-2.478-0.907-4.612-2.715-6.427-1.81-1.799-3.953-2.706-6.431-2.706z"/>
	</g>
</g>
</svg>
