<?xml version="1.0" encoding="UTF-8"?>
<svg width="18px" height="20px" version="1.1" viewBox="0 0 18 20" xmlns="http://www.w3.org/2000/svg">
 <g fill="none" fill-rule="evenodd">
  <g transform="translate(-341 -996)">
   <g transform="translate(100 852)">
    <g transform="translate(238 142)">
     <rect width="24" height="24"/>
     <path d="m7 7h10v1.79c0 0.45 0.54 0.67 0.85 0.35l2.79-2.79c0.2-0.2 0.2-0.51 0-0.71l-2.79-2.79c-0.31-0.31-0.85-0.09-0.85 0.36v1.79h-11c-0.55 0-1 0.45-1 1v4c0 0.55 0.45 1 1 1s1-0.45 1-1zm10 10h-10v-1.79c0-0.45-0.54-0.67-0.85-0.35l-2.79 2.79c-0.2 0.2-0.2 0.51 0 0.71l2.79 2.79c0.31 0.31 0.85 0.09 0.85-0.36v-1.79h11c0.55 0 1-0.45 1-1v-4c0-0.55-0.45-1-1-1s-1 0.45-1 1z" fill="#fff"/>
    </g>
   </g>
  </g>
 </g>
</svg>
