<?xml version="1.0" encoding="UTF-8"?>
<svg width="16px" height="16px" version="1.1" viewBox="0 0 16 16" xmlns="http://www.w3.org/2000/svg">
 <g fill="none" fill-rule="evenodd">
  <g transform="translate(-512 -998)">
   <g transform="translate(100 852)">
    <g transform="translate(408 142)">
     <g transform="translate(0)">
      <rect width="24" height="24"/>
      <path d="m10.59 9.17-4.47-4.47c-0.39-0.39-1.02-0.39-1.41 0s-0.39 1.02 0 1.41l4.46 4.46 1.42-1.4zm4.76-4.32 1.19 1.19-11.84 11.84c-0.39 0.39-0.39 1.02 0 1.41s1.02 0.39 1.41 0l11.85-11.83 1.19 1.19c0.31 0.31 0.85 0.09 0.85-0.36v-3.79c0-0.28-0.22-0.5-0.5-0.5h-3.79c-0.45 0-0.67 0.54-0.36 0.85zm-0.52 8.56-1.41 1.41 3.13 3.13-1.2 1.2c-0.31 0.31-0.09 0.85 0.36 0.85h3.79c0.28 0 0.5-0.22 0.5-0.5v-3.79c0-0.45-0.54-0.67-0.85-0.35l-1.19 1.19-3.13-3.14z" fill="#ffffff80"/>
     </g>
    </g>
   </g>
  </g>
 </g>
</svg>
