<?xml version="1.0" encoding="UTF-8"?>
<svg width="18px" height="18px" version="1.1" viewBox="0 0 18 18" xmlns="http://www.w3.org/2000/svg">
 <g fill="none" fill-rule="evenodd">
  <g transform="translate(-783 -997)">
   <g transform="translate(100 852)">
    <g transform="translate(680 142)">
     <g transform="translate(0)">
      <rect width="24" height="24"/>
      <path d="m3.63 3.63c-0.39 0.39-0.39 1.02 0 1.41l3.66 3.66-0.29 0.3h-3c-0.55 0-1 0.45-1 1v4c0 0.55 0.45 1 1 1h3l3.29 3.29c0.63 0.63 1.71 0.18 1.71-0.71v-4.17l4.18 4.18c-0.49 0.37-1.02 0.68-1.6 0.91-0.36 0.15-0.58 0.53-0.58 0.92 0 0.72 0.73 1.18 1.39 0.91 0.8-0.33 1.55-0.77 2.22-1.31l1.34 1.34c0.39 0.39 1.02 0.39 1.41 0s0.39-1.02 0-1.41l-15.31-15.32c-0.39-0.39-1.02-0.39-1.42 0zm15.37 8.37c0 0.82-0.15 1.61-0.41 2.34l1.53 1.53c0.56-1.17 0.88-2.48 0.88-3.87 0-3.83-2.4-7.11-5.78-8.4-0.59-0.23-1.22 0.23-1.22 0.86v0.19c0 0.38 0.25 0.71 0.61 0.85 2.57 1.04 4.39 3.56 4.39 6.5zm-8.71-6.29-0.17 0.17 1.88 1.88v-1.35c0-0.89-1.08-1.33-1.71-0.7zm6.21 6.29c0-1.77-1.02-3.29-2.5-4.03v1.79l2.48 2.48c0.01-0.08 0.02-0.16 0.02-0.24z" fill="#fff"/>
     </g>
    </g>
   </g>
  </g>
 </g>
</svg>
