<?xml version="1.0" encoding="UTF-8"?>
<svg width="18px" height="18px" version="1.1" viewBox="0 0 18 18" xmlns="http://www.w3.org/2000/svg">
 <g fill="none" fill-rule="evenodd">
  <g transform="translate(-717,-145)">
   <g transform="translate(714,142)">
    <rect width="24" height="24"/>
    <path d="m3 10v4c0 0.55 0.45 1 1 1h3l3.29 3.29c0.63 0.63 1.71 0.18 1.71-0.71v-11.17c0-0.89-1.08-1.34-1.71-0.71l-3.29 3.3h-3c-0.55 0-1 0.45-1 1zm13.5 2c0-1.77-1.02-3.29-2.5-4.03v8.05c1.48-0.73 2.5-2.25 2.5-4.02zm-2.5-7.55v0.2c0 0.38 0.25 0.71 0.6 0.85 2.58 1.03 4.4 3.56 4.4 6.5s-1.82 5.47-4.4 6.5c-0.36 0.14-0.6 0.47-0.6 0.85v0.2c0 0.63 0.63 1.07 1.21 0.85 3.39-1.29 5.79-4.56 5.79-8.4s-2.4-7.11-5.79-8.4c-0.58-0.23-1.21 0.22-1.21 0.85z" fill="#fff"/>
   </g>
  </g>
 </g>
</svg>
