<?xml version="1.0" encoding="UTF-8"?>
<svg enable-background="new 0 0 26 26" version="1.1" viewBox="0 0 26 26" xml:space="preserve" xmlns="http://www.w3.org/2000/svg"><path d="m13.954 13 9.6478-9.6478c0.26367-0.26367 0.26367-0.69082 0-0.95449-0.26367-0.26367-0.69082-0.26367-0.95449 0l-9.6478 9.6478-9.6478-9.6478c-0.26367-0.26367-0.69082-0.26367-0.95449 0-0.26367 0.26367-0.26367 0.69082 0 0.95449l9.6478 9.6478-9.6478 9.6478c-0.26367 0.26367-0.26367 0.69082 0 0.95449 0.13184 0.13184 0.3041 0.19775 0.47725 0.19775s0.34541-0.06592 0.47725-0.19775l9.6478-9.6478 9.6478 9.6478c0.13184 0.13184 0.3041 0.19775 0.47725 0.19775s0.34541-0.06592 0.47725-0.19775c0.26367-0.26367 0.26367-0.69082 0-0.95449z" fill="#fff" stroke-width=".9"/></svg>
