<?xml version="1.0" encoding="UTF-8"?>
<svg width="18px" height="20px" version="1.1" viewBox="0 0 18 20" xmlns="http://www.w3.org/2000/svg">
 <g fill="none" fill-rule="evenodd">
  <g transform="translate(-817 -4100)">
   <g transform="translate(100 4044)">
    <g transform="translate(714 54)">
     <polygon points="0 0 24 0 24 24 0 24"/>
     <path d="m18 16.08c-0.76 0-1.44 0.3-1.96 0.77l-7.13-4.15c0.05-0.23 0.09-0.46 0.09-0.7s-0.04-0.47-0.09-0.7l7.05-4.11c0.54 0.5 1.25 0.81 2.04 0.81 1.66 0 3-1.34 3-3s-1.34-3-3-3-3 1.34-3 3c0 0.24 0.04 0.47 0.09 0.7l-7.05 4.11c-0.54-0.5-1.25-0.81-2.04-0.81-1.66 0-3 1.34-3 3s1.34 3 3 3c0.79 0 1.5-0.31 2.04-0.81l7.12 4.16c-0.05 0.21-0.08 0.43-0.08 0.65 0 1.61 1.31 2.92 2.92 2.92s2.92-1.31 2.92-2.92-1.31-2.92-2.92-2.92z" fill="#fff"/>
    </g>
   </g>
  </g>
 </g>
</svg>
