<?xml version="1.0" encoding="UTF-8"?>
<svg width="18px" height="20px" version="1.1" viewBox="0 0 18 20" xmlns="http://www.w3.org/2000/svg">
 <g fill="none" fill-rule="evenodd">
  <g transform="translate(-341 -996)">
   <g transform="translate(100 852)">
    <g transform="translate(238 142)">
     <rect width="24" height="24"/>
     <path d="m7 7h10v1.79c0 0.45 0.54 0.67 0.85 0.35l2.79-2.79c0.2-0.2 0.2-0.51 0-0.71l-2.79-2.79c-0.31-0.31-0.85-0.09-0.85 0.36v1.79h-11c-0.55 0-1 0.45-1 1v4c0 0.55 0.45 1 1 1s1-0.45 1-1v-3zm10 10h-10v-1.79c0-0.45-0.54-0.67-0.85-0.35l-2.79 2.79c-0.2 0.2-0.2 0.51 0 0.71l2.79 2.79c0.31 0.31 0.85 0.09 0.85-0.36v-1.79h11c0.55 0 1-0.45 1-1v-4c0-0.55-0.45-1-1-1s-1 0.45-1 1v3zm-4-2.75v-4.44c0-0.45-0.36-0.81-0.81-0.81-0.13 0-0.25 0.03-0.36 0.09l-1.49 0.74c-0.21 0.1-0.34 0.32-0.34 0.55 0 0.34 0.28 0.62 0.62 0.62h0.88v3.25c0 0.41 0.34 0.75 0.75 0.75s0.75-0.34 0.75-0.75z" fill="#fff"/>
    </g>
   </g>
  </g>
 </g>
</svg>
