<?xml version="1.0" encoding="utf-8"?>

<!DOCTYPE svg PUBLIC "-//W3C//DTD SVG 1.1//EN" "http://www.w3.org/Graphics/SVG/1.1/DTD/svg11.dtd">
<!-- Uploaded to: SVG Repo, www.svgrepo.com, Generator: SVG Repo Mixer Tools -->
<svg height="800px" width="800px" version="1.1" id="_x32_" xmlns="http://www.w3.org/2000/svg" xmlns:xlink="http://www.w3.org/1999/xlink" 
	 viewBox="0 0 512 512"  xml:space="preserve">
<style type="text/css">
	.st0{fill:#fff;}
</style>
<g>
	<path class="st0" d="M501.652,204.587c-10.026-23.664-26.546-43.718-47.884-58.154c-10.669-7.222-22.302-12.753-34.576-16.528
		c-12.51-4.011-25.748-6.016-39.3-6.016c-17.171,0-33.934,3.212-49.656,9.627c-0.799,0.321-1.606,0.642-2.326,0.963
		c-0.478,0.243-0.963,0.4-1.363,0.642c-13.638,6.016-26.148,14.358-37.381,24.863c-3.524,3.368-6.894,6.902-10.026,10.59
		c-4.974,5.695-10.426,12.518-17.162,21.582l-3.534,4.652c-3.125,4.246-32.242,46.921-37.458,54.7
		c-2.006,3.046-4.332,6.415-6.815,9.948l-4.331,6.172c-5.053,7.222-11.069,15.322-16.928,22.865
		c-2.726,3.447-5.452,6.737-7.778,9.463c-2.248,2.648-4.332,4.731-5.773,6.095c-6.259,6.016-13.481,10.59-21.417,13.802
		c-8.186,3.368-16.927,5.053-25.834,5.053c-6.172,0-12.267-0.807-18.204-2.492c-1.128-0.235-2.17-0.556-3.29-0.955
		c-1.762-0.564-3.532-1.285-5.295-2.005c-12.354-5.217-22.858-13.802-30.323-24.95c-3.768-5.616-6.736-11.71-8.664-17.969
		c-2.083-6.98-3.125-13.716-3.125-20.532c0-9.228,1.849-18.212,5.374-26.789c5.217-12.275,13.881-22.788,25.027-30.323
		c5.452-3.69,11.555-6.58,18.048-8.585c6.737-2.162,13.638-3.204,20.375-3.204c9.141,0.078,17.891,1.762,25.912,4.966
		c8.021,3.368,15.236,8.021,21.417,13.802c1.519,1.441,3.525,3.69,5.773,6.172c4.01,4.732,8.984,10.912,14.194,17.891
		c0.963,1.285,1.849,2.484,2.812,3.768c7.857-11.632,32.406-47.65,35.775-52.216l1.927-2.648c-2.326-2.891-4.653-5.695-6.98-8.264
		c-3.776-4.331-6.823-7.622-10.026-10.669c-12.032-11.311-25.834-20.131-40.992-26.39c-15.8-6.416-32.562-9.627-49.734-9.627
		c-17.884,0-35.21,3.532-51.496,10.434c-23.5,9.862-43.631,26.469-58.076,47.807C15.4,192.633,9.87,204.265,5.86,216.697
		C2.005,229.449,0,242.609,0,256.004c0,17.884,3.447,35.133,10.348,51.418c9.949,23.578,26.468,43.631,47.807,58.154
		c10.747,7.136,22.38,12.752,34.654,16.598c12.674,3.932,25.826,5.937,39.3,5.937c17.171,0,33.934-3.29,49.734-9.627
		c14.037-5.773,26.955-13.794,38.423-24.142c0.885-0.721,1.684-1.528,2.482-2.248c3.455-3.125,6.58-6.572,10.113-10.669
		c5.053-5.773,10.426-12.588,17.241-21.572l3.455-4.653c2.005-2.726,18.204-26.468,31.278-45.566
		c7.543-11.069,13.802-20.21,15.001-21.972l2.326-3.212c5.617-8.021,11.633-16.199,16.928-22.944
		c2.726-3.447,5.452-6.736,7.778-9.463c2.248-2.647,4.332-4.731,5.773-6.094c6.18-5.86,13.394-10.513,21.338-13.794
		c2.006-0.807,4.011-1.528,5.86-2.092c1.919-0.556,3.768-1.042,5.773-1.442c4.653-0.963,9.384-1.441,14.194-1.519
		c9.548,0.078,18.612,1.919,26.876,5.452c12.353,5.209,22.858,13.794,30.323,24.941c3.846,5.616,6.736,11.719,8.656,18.048
		c2.091,6.58,3.133,13.481,3.133,20.46c0,9.306-1.849,18.283-5.373,26.79c-5.296,12.353-13.881,22.858-25.027,30.322
		c-5.695,3.846-11.711,6.737-18.048,8.656c-6.658,2.092-13.56,3.134-20.453,3.134c-8.907,0-17.648-1.684-25.835-5.053
		c-7.935-3.212-15.157-7.786-21.416-13.716c-1.519-1.449-3.525-3.689-5.852-6.259c-3.689-4.253-8.342-10.104-14.28-17.97
		c-0.886-1.12-1.684-2.326-2.57-3.524c-1.684,2.405-3.368,4.974-5.209,7.614c-19.974,29.202-28.638,41.79-30.479,44.438
		l-2.091,2.812c2.413,2.804,4.653,5.616,6.901,8.1c3.611,4.253,6.902,7.778,10.105,10.747c12.032,11.312,25.826,20.132,40.992,26.39
		c15.8,6.338,32.562,9.627,49.734,9.627c17.883,0,35.132-3.446,51.409-10.347c23.587-9.948,43.718-26.548,58.154-47.885
		c7.301-10.912,12.918-22.545,16.607-34.577c3.933-12.674,5.938-25.826,5.938-39.3C512,238.191,508.553,220.871,501.652,204.587z"/>
</g>
</svg>