<?xml version="1.0" encoding="UTF-8"?>
<svg width="875" height="875" version="1.1" viewBox="0 0 875 875" xml:space="preserve" xmlns="http://www.w3.org/2000/svg">
<style type="text/css">
	.st0{fill:#C6BDA3;}
	.st1{fill:#6D6E71;}
	.st2{fill:#D8D8DB;}
	.st3{fill:url(#SVGID_1_);}
	.st4{fill:#F8D286;}
	.st5{fill:url(#SVGID_2_);}
	.st6{fill:url(#SVGID_3_);}
	.st7{fill:url(#SVGID_4_);}
	.st8{fill:#0C0C0C;}
	.st9{fill:#1E1E1E;}
	.st10{fill:#E5E3E4;}
	.st11{fill:#353535;}
	.st12{fill:#0F0F0E;}
	.st13{fill:#AFA29C;}
	.st14{fill:url(#SVGID_5_);}
	.st15{fill:url(#SVGID_6_);}
	.st16{fill:url(#SVGID_7_);}
	.st17{fill:#414042;}
	.st18{fill:url(#SVGID_8_);}
	.st19{fill:url(#SVGID_9_);}
	.st20{fill:#E2DECF;}
	.st21{fill:#F7F2DF;}
	.st22{fill:#EFEFED;}
	.st23{fill:#808285;}
	.st24{fill:#58595B;}
	.st25{fill:#BCBEC0;}
	.st26{fill:url(#SVGID_10_);}
	.st27{fill:url(#SVGID_11_);}
	.st28{fill:#F1F2F2;}
	.st29{fill:#E6E7E8;}
	.st30{fill:#A7A9AC;}
	.st31{fill:#231F20;}
	.st32{fill:#191919;}
</style>
<g transform="translate(-261.7 -259.6)">
	
		<linearGradient id="SVGID_2_" x1="727.37" x2="680.14" y1="312.78" y2="956.67" gradientUnits="userSpaceOnUse">
			<stop stop-color="#58595B" offset=".0081081"/>
			<stop stop-color="#515153" offset=".2284"/>
			<stop stop-color="#3C3D3E" offset=".5657"/>
			<stop stop-color="#1B1B1B" offset=".9762"/>
			<stop stop-color="#191919" offset="1"/>
		</linearGradient>
		<circle class="st5" cx="699.2" cy="697.1" r="437.5" fill="url(#SVGID_2_)"/>
		<linearGradient id="SVGID_3_" x1="697.49" x2="700.8" y1="281.73" y2="1095.5" gradientUnits="userSpaceOnUse">
			<stop offset=".0081081"/>
			<stop stop-color="#040404" offset=".1078"/>
			<stop stop-color="#111" offset=".2161"/>
			<stop stop-color="#262627" offset=".3284"/>
			<stop stop-color="#434445" offset=".4426"/>
			<stop stop-color="#58595B" offset=".5108"/>
			<stop stop-color="#515254" offset=".5257"/>
			<stop stop-color="#38393A" offset=".5905"/>
			<stop stop-color="#242525" offset=".6619"/>
			<stop stop-color="#171717" offset=".7424"/>
			<stop stop-color="#0E0E0F" offset=".8398"/>
			<stop stop-color="#0C0C0C" offset="1"/>
		</linearGradient>
		<circle class="st6" cx="699.2" cy="697.1" r="427.6" fill="url(#SVGID_3_)"/>
		<circle class="st8" cx="699.2" cy="697.2" r="151.1"/>
		<circle class="st9" cx="699.2" cy="697.2" r="149.1"/>
		<circle class="st10" cx="699.2" cy="697.2" r="120.6"/>
		
		
			<path class="st12" d="m488.6 1009.9c-26.6-17.6-51-38.7-72.4-62.4-21.3-23.9-39.5-50.5-54.1-79-29.3-56.9-43.7-121.5-41.3-185.6s21.5-127.4 55.1-182c16.7-27.3 36.9-52.5 59.9-74.7 23.1-22.1 49-41.3 76.9-56.8-27.6 16.1-53 35.7-75.6 58.1-22.7 22.3-42.6 47.5-59.1 74.7-33 54.5-51.4 117.4-53.5 180.9-2.7 63.5 11 127.6 39.8 184.4 14.3 28.4 32.3 55 53.3 78.9 20.8 23.9 44.7 45.4 71 63.5z"/>
			<path class="st12" d="m887.3 370.1c29.2 16.5 56.2 37 80.1 60.7 23.8 23.8 44.3 50.8 61 80 33.5 58.4 50.7 126 49.5 193.5-1.2 67.4-21 134.4-56.7 191.5-17.8 28.6-39.4 54.8-64.1 77.6-24.8 22.7-52.6 42.1-82.4 57.5 29.6-15.9 56.9-35.8 81.2-58.9 24.4-22.9 45.7-49.1 63.2-77.6 35.1-57 54.3-123.5 55.1-190.3 1.6-66.8-15-133.9-47.9-192.2-16.4-29.2-36.7-56.1-60.2-80-23.3-23.8-49.9-44.7-78.8-61.8z"/>
			<path class="st12" d="m522.9 1020.6c-29.2-15.8-56.3-35.5-80.3-58.5-23.9-23.1-44.7-49.4-61.7-78.1-34-57.3-51.8-123.9-51.2-190.5 0.5-66.7 19.8-133 54.9-189.5 17.5-28.3 38.8-54.2 63.2-76.8 24.5-22.5 52-41.7 81.5-56.9-58.7 31.1-108.7 78.1-143.3 134.6-34.7 56.5-53.6 122.5-53.8 188.7-0.9 66.2 16.5 132.5 50.1 189.7 33.5 57 82.5 105 140.6 137.3z"/>
			<path class="st12" d="m880.7 376.5c29.1 16.3 56 36.6 79.7 60.2 23.6 23.6 44 50.5 60.5 79.5 33 58.1 49.6 125.5 47.5 192.4-2 66.9-22.7 133.1-59.3 189.1-18.2 28-40.3 53.5-65.3 75.6-25.1 22-53.2 40.6-83.3 55.1 59.8-29.7 111.2-75.7 147.3-131.6 36.2-55.9 56.5-121.8 58.2-188.2 2.4-66.4-13.8-133.5-46.4-191.5-32.7-58.1-81.1-107.2-138.9-140.6z"/>
			<path class="st12" d="m566.3 1008c-29.4-12.3-57.1-28.8-82-48.9-24.8-20.2-46.7-43.9-64.9-70.3-36.5-52.6-57.5-115.9-59.7-179.9-2.2-64.1 14.3-128.6 47-183.6 16.3-27.5 36.5-52.7 59.8-74.6 23.4-21.8 49.9-40.2 78.4-54.5-28.2 14.9-54.3 33.8-77.1 55.8-23 21.9-42.9 47.1-58.9 74.5-32.2 54.8-48 118.9-45.4 182.2 1.8 63.4 22.1 126.2 58 178.7 17.9 26.3 39.5 50 64 70.3 24.3 20.4 51.6 37.5 80.8 50.3z"/>
			<path class="st12" d="m856.5 397.7c28 14.4 54 32.8 76.9 54.4 22.9 21.7 42.7 46.7 58.7 73.9 32.2 54.4 48.5 118 46.6 181.3s-22 125.8-57.5 178.2c-17.7 26.2-39 49.9-63.1 70.2-24.3 20.2-51.3 36.9-80.2 49.6 28.6-13.2 55.2-30.5 79-51 23.9-20.4 44.9-44.1 62.3-70.2 34.8-52.2 54.4-114.3 55.8-176.9 2.3-62.6-13.4-125.7-45-179.9-15.7-27.1-35.3-52-57.8-73.9-22.5-21.8-48-40.7-75.7-55.7z"/>
			<path class="st12" d="m590.5 1005.4c-30.5-10.4-59.5-25.3-85.7-44.2-26.2-19-49.5-41.9-69-67.7-39.2-51.6-62.1-115.3-65.3-180.1-3.3-64.8 13.2-130.5 47.1-185.7 16.9-27.6 37.9-52.7 62-74.2 24.2-21.4 51.6-39.1 80.9-52.5-29 14.1-55.7 32.5-79.3 54.3-23.6 21.7-44 46.8-60.4 74.4-16.3 27.6-28.7 57.3-36.4 88.4-7.7 31-10.7 63.2-9 95.1 1.5 31.9 7.7 63.6 18.4 93.7s26 58.6 44.9 84.4 41.8 48.8 67.4 68c25.7 19.4 54.2 35 84.4 46.1z"/>
			<path class="st12" d="m845 404.4c28.1 13.6 54.3 31.3 77.5 52.4 23.1 21.2 43.2 45.7 59.4 72.6 32.6 53.8 48.6 117.3 46.2 180.1-2.3 62.8-23.2 125-59.7 176.1-18.2 25.6-40.1 48.5-64.7 67.9-24.7 19.3-52.2 34.9-81.3 46.3 28.8-12.2 55.7-28.5 79.8-48.2 24.2-19.6 45.5-42.6 63.1-68.2s31.8-53.5 41.5-82.9c9.8-29.4 15.3-60.2 16.3-91.2 1.3-31-1.9-62.1-9.4-92.2s-19.5-59-35.1-85.8-35.2-51.4-57.8-72.8c-22.4-21.4-48-39.7-75.8-54.1z"/>
			<path class="st12" d="m619.8 970.6c-28.2-8-55.1-20.4-79.6-36.6-24.4-16.3-46.2-36.4-64.6-59.3-36.8-45.8-58.7-103.3-61.9-162-3.3-58.7 12.3-118.3 43.9-167.8 15.7-24.8 35.3-47.1 57.7-66 22.5-18.8 47.9-34.1 75.1-45.1-54 22.8-100.4 62.6-131.4 112-31.2 49.4-46.4 108.6-42.8 166.8 2.9 58.2 24.4 115.4 60.7 161.1s86.8 80.2 142.9 96.9z"/>
			<path class="st12" d="m807.9 433.8c26.7 10.8 51.7 25.8 74 44.2 22.2 18.4 41.6 40.3 57.3 64.5 31.6 48.4 47.7 106.6 45.7 164.4-1.8 57.8-22 114.8-56.8 161-17.3 23.1-38.2 43.6-61.6 60.4-23.5 16.8-49.5 30-76.9 39 54.5-18.7 102.9-54.3 137.1-100.4 34.4-46 54-102.7 55.6-160.1 2.3-57.3-13.4-115.2-44.6-163.5-31-48.3-76.8-87.1-129.8-109.5z"/>
			<path class="st12" d="m629.5 963.3c-28.4-7.1-55.6-18.9-80.4-34.6-24.7-15.8-46.9-35.7-65.4-58.5-37.2-45.6-58.9-103.6-61-162.4-2.4-58.8 14.7-118.3 48.3-166.6 16.7-24.2 37.3-45.6 60.7-63.4 23.5-17.6 49.7-31.5 77.5-40.8-55.1 19.8-103.2 57.5-135.8 105.7-16.2 24.1-28.8 50.7-36.8 78.7-8 27.9-11.4 57.2-10.2 86.2 1 29 6.7 57.9 16.8 85.1 10.1 27.3 24.7 52.8 42.7 75.6 36.2 45.7 87.1 79.6 143.6 95z"/>
			<path class="st12" d="m789.2 437c27.6 9.3 53.8 23 77.2 40.6 23.3 17.6 43.9 39 60.6 63 33.6 48.1 50.8 107.3 48.7 165.9-1.8 58.6-23.1 116.5-59.9 162.2-18.3 22.9-40.3 42.8-64.8 58.7-24.6 15.9-51.6 27.8-79.8 35.2 56.2-15.9 106.6-50 142.4-95.7 17.8-22.8 32.2-48.4 42.1-75.6s15.4-56 16.3-84.9c1.1-28.9-2.5-58-10.5-85.8s-20.6-54.3-36.8-78.3c-32.5-48-80.5-85.6-135.5-105.3z"/>
			<path class="st12" d="m664.1 869.5c-42.2-8.3-80.8-32.8-106.6-67.4-25.9-34.4-38.5-78.7-34.2-121.7 4-43 24.4-84.2 56.2-113.4 31.6-29.4 74.3-46.7 117.7-47 43.3-0.4 86.4 15.6 118.7 44.3 32.4 28.5 54.1 69.1 58.7 112.1 4.9 42.8-6 87.5-31.4 122.4-25.1 35-63.2 60.4-105.2 69.6 41.9-9.7 79.6-35.4 104.1-70.4 25.1-34.8 35.8-79.1 30.7-121.5-4.6-42.6-26.3-82.7-58.4-110.7-32-28.3-74.6-43.9-117.2-43.4-42.7 0.1-84.9 17-116.2 45.9-31.5 28.7-51.9 69.3-56 111.9-4.4 42.6 7.9 86.5 33.5 120.8 25.3 34.9 63.5 59.9 105.6 68.5z"/>
			<path class="st12" d="m676.1 864.6c-41.5-5.3-80.5-27-107.3-59.2-27-32.1-41.2-74.5-39-116.4 1.7-41.9 19.8-82.9 49.6-112.5 29.6-29.8 70.8-47.8 112.9-49.3 42-1.8 84.5 12.7 116.5 39.9 32.3 27 53.7 66.4 58.7 108.1 5.4 41.5-5 85.1-29.4 119.2-24.3 34.2-61.3 58.8-102.2 67.7 40.8-9.2 77.4-34.3 101.1-68.4 24.1-34 34.2-77.1 28.7-118.3-5.1-41.2-26.5-80.1-58.4-106.6-31.7-26.8-73.6-40.9-114.9-39-41.4 1.3-82 18.8-111.4 48.2-29.6 29.1-47.6 69.5-49.4 111-2.3 41.5 11.6 83.5 38.3 115.5 26.1 32.3 64.8 54.4 106.2 60.1z"/>
			<path class="st12" d="m682.8 914c-27.2-1.7-54-8.6-78.8-20.3-24.7-11.7-47.1-28.2-65.8-48.2-37.6-40-58.7-94.7-58.4-149.6 0.1-54.9 22.1-109.4 60-149 18.9-19.8 41.6-36 66.4-47.5 24.8-11.4 51.8-18 79-19.4-54.3 4-106.4 29.2-143.2 68.8-18.4 19.8-33.2 42.9-43.2 68s-15.2 52-15.2 79c-0.2 27 4.7 54 14.4 79.2s24.2 48.5 42.4 68.5c36.2 40.2 88.1 65.9 142.4 70.5z"/>
			<path class="st12" d="m712.9 480c27.1 1.4 54 7.9 78.8 19.2 24.8 11.4 47.4 27.5 66.3 47.2 38.1 39.3 60.2 93.6 60.5 148.4 0.6 54.8-20.1 109.4-57.3 149.6-18.5 20.1-40.7 36.8-65.2 48.6-24.6 11.8-51.3 18.9-78.4 20.9 54.1-5 105.6-31.2 141.5-71.4 18-20.1 32.3-43.4 41.8-68.6s14.2-52.1 13.9-79c-0.1-26.9-5.4-53.8-15.5-78.8-10-25-24.9-48-43.4-67.7-36.8-39.5-88.8-64.5-143-68.4z"/>
			<path class="st12" d="m677.7 924.1c-26.6-2.4-52.8-9.4-77-20.8-24.2-11.5-46.2-27.3-65-46.3-37.7-38.1-61.2-89.8-65-143.3-4.1-53.5 11.8-108.2 43.7-151.2 15.8-21.6 35.4-40.4 57.7-55.2s47.2-25.6 73.1-31.7c-51.8 13-98.3 44.9-129.5 87.9-31.4 42.9-46.8 97.1-42.5 150.1 3.5 53 26.5 104.3 63.7 142.3 37 38 87.6 62.7 140.8 68.2z"/>
			<path class="st12" d="m750.6 474.9c26.2 5.8 51.3 16.4 73.8 31 22.5 14.7 42.3 33.4 58.4 54.9 32.3 43 48.7 97.7 44.9 151.5-3.5 53.8-26.9 105.8-64.6 144.2-18.8 19.2-40.9 35.1-65.2 46.7-24.3 11.5-50.6 18.6-77.3 20.9 53.4-5.5 104.2-30.3 141.3-68.8 37.3-38.3 60.2-90 63.4-143.2 4-53.2-11.9-107.5-43.7-150.4-31.8-42.8-78.8-74.4-131-86.8z"/>
		
	
</g>

</svg>
